<?xml version="1.0" encoding="utf-8"?>
<svg width="305.8px" height="65px" viewBox="0 0 305.8 65" version="1.1" xmlns:xlink="http://www.w3.org/1999/xlink" xmlns="http://www.w3.org/2000/svg">
  <defs>
    <path d="M0 0L45.6971 0L45.6971 59.4062L0 59.4062L0 0Z" id="path_1" />
    <clipPath id="mask_1">
      <use xlink:href="#path_1" />
    </clipPath>
  </defs>
  <g id="logo_dark-4">
    <g id="logo_dark-4">
      <g id="logo_dark-3">
        <g id="logo_dark">
          <g id="闪电" transform="translate(97.00006 2.593689)">
            <g id="闪电">
              <g id="fastly">
                <g id="面具集团">
                  <path d="M0 0L45.6971 0L45.6971 59.4062L0 59.4062L0 0Z" id="path-1" fill="none" fill-rule="evenodd" stroke="none" />
                  <g clip-path="url(#mask_1)">
                    <path d="M24.1944 58.2071L45.244 26.709C46.0704 25.4713 45.7349 23.7986 44.4939 22.9743C44.051 22.6794 43.5305 22.5225 42.9979 22.5225L26.4473 22.5225L26.4473 2.69323C26.4473 1.20598 25.2393 0 23.7489 0C22.8458 0 22.0037 0.449986 21.5028 1.19919L0.453269 32.6972C-0.373093 33.9349 -0.0381646 35.6067 1.20252 36.432C1.64591 36.7268 2.1664 36.8846 2.69929 36.8846L19.2494 36.8846L19.2494 56.713C19.2494 58.2003 20.458 59.4062 21.9484 59.4062C22.851 59.4062 23.6945 58.9563 24.1944 58.2071L24.1944 58.2071Z" id="Fill-1" fill="#FFFFFF" fill-rule="evenodd" stroke="none" />
                  </g>
                </g>
              </g>
            </g>
          </g>
          <g id="img" fill="#FFFFFF">
            <path d="M6.24 14.26Q7.2 14.26 7.944 14.908Q8.688 15.556 8.688 16.948Q8.688 18.292 7.944 18.964Q7.2 19.636 6.24 19.636Q5.184 19.636 4.464 18.964Q3.744 18.292 3.744 16.948Q3.744 15.556 4.464 14.908Q5.184 14.26 6.24 14.26ZM44.688 23.428Q49.056 23.428 51.216 25.66Q53.376 27.892 53.376 32.884L53.376 49.636L49.2 49.636L49.2 33.076Q49.2 26.98 43.968 26.98Q40.224 26.98 38.616 29.14Q37.008 31.3 37.008 35.428L37.008 49.636L32.832 49.636L32.832 33.076Q32.832 26.98 27.552 26.98Q23.664 26.98 22.176 29.38Q20.688 31.78 20.688 36.292L20.688 49.636L16.464 49.636L16.464 23.908L19.872 23.908L20.496 27.412L20.736 27.412Q21.936 25.396 23.976 24.412Q26.016 23.428 28.32 23.428Q34.368 23.428 36.192 27.748L36.432 27.748Q37.728 25.54 39.96 24.484Q42.192 23.428 44.688 23.428ZM75.048 24.388Q73.008 23.428 70.464 23.428Q65.52 23.428 62.712 27.052Q59.904 30.676 59.904 36.82Q59.904 43.108 62.712 46.612Q65.52 50.116 70.512 50.116Q75.888 50.116 78.48 46.228L78.672 46.228Q78.624 46.66 78.576 47.74Q78.528 48.82 78.528 49.396L78.528 50.404Q78.528 53.764 76.632 55.708Q74.736 57.652 71.424 57.652Q65.712 57.652 61.92 55.636L61.92 59.524Q65.52 61.156 71.184 61.156Q77.088 61.156 79.896 58.372Q82.704 55.588 82.704 50.068L82.704 23.908L79.344 23.908L78.768 27.316L78.528 27.316Q77.088 25.348 75.048 24.388ZM8.304 23.908L8.304 49.636L4.08 49.636L4.08 23.908L8.304 23.908ZM66.048 29.548Q67.824 26.98 71.04 26.98Q74.928 26.98 76.752 29.26Q78.576 31.54 78.576 36.82L78.576 37.828Q78.576 42.484 76.8 44.572Q75.024 46.66 71.136 46.66Q67.776 46.66 66.024 44.14Q64.272 41.62 64.272 36.868Q64.272 32.116 66.048 29.548Z" />
          </g>
          <g id="render" fill="#FFFFFF" transform="translate(152.8 0)">
            <path d="M82.08 46.78Q84.96 50.116 89.76 50.116Q92.784 50.116 94.704 48.964Q96.624 47.812 97.776 46.18L97.968 46.18L98.592 49.636L102 49.636L102 13.156L97.776 13.156L97.776 23.428Q97.776 24.148 97.896 25.372Q98.016 26.596 98.064 27.22L97.776 27.22Q96.576 25.636 94.68 24.532Q92.784 23.428 89.808 23.428Q85.008 23.428 82.104 26.812Q79.2 30.196 79.2 36.82Q79.2 43.444 82.08 46.78ZM17.64 23.5Q16.8 23.428 16.08 23.428Q13.392 23.428 11.424 24.964Q9.456 26.5 8.208 28.612L8.016 28.612L7.536 23.908L4.08 23.908L4.08 49.636L8.304 49.636L8.304 35.908Q8.304 33.316 9.336 31.372Q10.368 29.428 12.096 28.348Q13.824 27.268 15.792 27.268Q16.464 27.268 17.208 27.364Q17.952 27.46 18.576 27.604L19.104 23.716Q18.48 23.572 17.64 23.5ZM39.528 24.868Q37.152 23.428 33.84 23.428Q30.432 23.428 27.864 25.06Q25.296 26.692 23.88 29.716Q22.464 32.74 22.464 36.964Q22.464 41.236 24.024 44.188Q25.584 47.14 28.392 48.628Q31.2 50.116 34.848 50.116Q37.488 50.116 39.408 49.708Q41.328 49.3 43.296 48.436L43.296 44.74Q41.28 45.604 39.384 46.06Q37.488 46.516 35.04 46.516Q31.2 46.516 29.064 44.236Q26.928 41.956 26.832 37.588L44.448 37.588L44.448 35.044Q44.448 31.54 43.176 28.924Q41.904 26.308 39.528 24.868ZM63.36 23.428Q67.968 23.428 70.32 25.66Q72.672 27.892 72.672 32.884L72.672 49.636L68.496 49.636L68.496 33.172Q68.496 26.98 62.736 26.98Q58.464 26.98 56.832 29.38Q55.2 31.78 55.2 36.292L55.2 49.636L50.976 49.636L50.976 23.908L54.384 23.908L55.008 27.412L55.248 27.412Q56.496 25.396 58.704 24.412Q60.912 23.428 63.36 23.428ZM120.096 23.428Q123.408 23.428 125.784 24.868Q128.16 26.308 129.432 28.924Q130.704 31.54 130.704 35.044L130.704 37.588L113.088 37.588Q113.184 41.956 115.32 44.236Q117.456 46.516 121.296 46.516Q123.744 46.516 125.64 46.06Q127.536 45.604 129.552 44.74L129.552 48.436Q127.584 49.3 125.664 49.708Q123.744 50.116 121.104 50.116Q117.456 50.116 114.648 48.628Q111.84 47.14 110.28 44.188Q108.72 41.236 108.72 36.964Q108.72 32.74 110.136 29.716Q111.552 26.692 114.12 25.06Q116.688 23.428 120.096 23.428ZM150.792 23.5Q149.952 23.428 149.232 23.428Q146.544 23.428 144.576 24.964Q142.608 26.5 141.36 28.612L141.168 28.612L140.688 23.908L137.232 23.908L137.232 49.636L141.456 49.636L141.456 35.908Q141.456 33.316 142.488 31.372Q143.52 29.428 145.248 28.348Q146.976 27.268 148.944 27.268Q149.616 27.268 150.36 27.364Q151.104 27.46 151.728 27.604L152.256 23.716Q151.632 23.572 150.792 23.5ZM29.016 28.828Q30.768 26.884 33.792 26.884Q37.008 26.884 38.496 28.924Q39.984 30.964 40.032 34.228L26.928 34.228Q27.264 30.772 29.016 28.828ZM120.048 26.884Q117.024 26.884 115.272 28.828Q113.52 30.772 113.184 34.228L126.288 34.228Q126.24 30.964 124.752 28.924Q123.264 26.884 120.048 26.884ZM96.168 44.38Q94.512 46.612 90.432 46.612Q86.976 46.612 85.272 44.068Q83.568 41.524 83.568 36.916Q83.568 32.356 85.272 29.644Q86.976 26.932 90.384 26.932Q94.656 26.932 96.24 29.5Q97.824 32.068 97.824 36.868L97.824 37.636Q97.824 42.148 96.168 44.38Z" />
          </g>
        </g>
      </g>
    </g>
  </g>
</svg>