<?xml version="1.0" encoding="UTF-8"?>
<svg width="256px" height="256px" viewBox="0 0 256 256" version="1.1" xmlns="http://www.w3.org/2000/svg" xmlns:xlink="http://www.w3.org/1999/xlink">
    <title>icon</title>
    <defs>
        <polygon id="path-1" points="-2.27587333e-05 4.06974359 119.999977 4.06974359 119.999977 159.967179 -2.27587333e-05 159.967179"></polygon>
    </defs>
    <g id="imgrender" stroke="none" stroke-width="1" fill="none" fill-rule="evenodd">
        <g id="icon">
            <circle id="椭圆形" fill="#2E3133" cx="128" cy="128" r="128"></circle>
            <g id="闪电" transform="translate(68.000022, 48.032000)">
                <mask id="mask-2" fill="white">
                    <use xlink:href="#path-1"></use>
                </mask>
                <g id="Clip-2"></g>
                <path d="M63.5341384,156.820187 L118.810211,74.1611724 C120.980209,70.9131178 120.09925,66.5235211 116.840365,64.3601611 C115.677176,63.5864046 114.310379,63.1746914 112.911904,63.1746914 L69.4503007,63.1746914 L69.4503007,11.1374852 C69.4503007,7.23453688 66.2780996,4.06974359 62.3643263,4.06974359 C59.9927352,4.06974359 57.7812661,5.25061947 56.4660194,7.21673617 L1.19023505,89.8757506 C-0.979763623,93.1238053 -0.100244587,97.5111051 3.15777731,99.676762 C4.32211767,100.450519 5.68891444,100.864528 7.08825399,100.864528 L50.5487051,100.864528 L50.5487051,152.899438 C50.5487051,156.802386 53.7223462,159.967179 57.6361195,159.967179 C60.0062707,159.967179 62.2214836,158.786304 63.5341384,156.820187 Z" id="Fill-1" fill="#FFFFFF" mask="url(#mask-2)"></path>
            </g>
        </g>
    </g>
</svg>